<svg width="105" height="105" viewBox="0 0 105 105" fill="none" xmlns="http://www.w3.org/2000/svg">
<path d="M39.4792 38.5675V66.4321C39.4792 68.5155 40.3906 70.0346 42.2136 70.9894C44.0365 71.9443 45.816 71.8575 47.5521 70.729L69.1667 56.9269C70.816 55.9721 71.6406 54.4964 71.6406 52.4998C71.6406 50.5033 70.816 49.0276 69.1667 48.0728L47.5521 34.2707C45.816 33.1422 44.0365 33.0554 42.2136 34.0103C40.3906 34.9651 39.4792 36.4842 39.4792 38.5675ZM52.5 104.583C45.2952 104.583 38.5243 103.215 32.1875 100.479C25.8507 97.7464 20.3386 94.0363 15.6511 89.3488C10.9636 84.6613 7.25349 79.1491 4.52085 72.8123C1.78474 66.4755 0.416687 59.7047 0.416687 52.4998C0.416687 45.295 1.78474 38.5241 4.52085 32.1873C7.25349 25.8505 10.9636 20.3384 15.6511 15.6509C20.3386 10.9634 25.8507 7.25157 32.1875 4.51546C38.5243 1.78282 45.2952 0.416504 52.5 0.416504C59.7049 0.416504 66.4757 1.78282 72.8125 4.51546C79.1493 7.25157 84.6615 10.9634 89.349 15.6509C94.0365 20.3384 97.7465 25.8505 100.479 32.1873C103.215 38.5241 104.583 45.295 104.583 52.4998C104.583 59.7047 103.215 66.4755 100.479 72.8123C97.7465 79.1491 94.0365 84.6613 89.349 89.3488C84.6615 94.0363 79.1493 97.7464 72.8125 100.479C66.4757 103.215 59.7049 104.583 52.5 104.583ZM52.5 94.1665C64.0452 94.1665 73.8768 90.1092 81.9948 81.9946C90.1094 73.8766 94.1667 64.045 94.1667 52.4998C94.1667 40.9547 90.1094 31.1231 81.9948 23.005C73.8768 14.8905 64.0452 10.8332 52.5 10.8332C40.9549 10.8332 31.125 14.8905 23.0104 23.005C14.8924 31.1231 10.8334 40.9547 10.8334 52.4998C10.8334 64.045 14.8924 73.8766 23.0104 81.9946C31.125 90.1092 40.9549 94.1665 52.5 94.1665Z" fill="#FF8367"/>
</svg>
